<svg width="19" height="22" viewBox="0 0 19 22" fill="none" xmlns="http://www.w3.org/2000/svg">
<path d="M4.32145 8.25H7.85716V1.57143C7.85716 0.704 8.55959 0 9.42859 0C10.2976 0 11 0.704 11 1.57143V8.25H14.5357C15.587 8.25 16.1103 9.52286 15.3686 10.2614L10.2614 15.3686C10.032 15.5996 9.7303 15.7143 9.42859 15.7143C9.12687 15.7143 8.82516 15.5996 8.59573 15.3686L3.48859 10.2614C2.74688 9.52286 3.27016 8.25 4.32145 8.25Z" fill="white"/>
<path d="M17.2857 21.9999H1.57143C0.702429 21.9999 0 21.2959 0 20.4284C0 19.561 0.702429 18.857 1.57143 18.857H17.2857C18.1547 18.857 18.8571 19.561 18.8571 20.4284C18.8571 21.2959 18.1547 21.9999 17.2857 21.9999Z" fill="white"/>
</svg>
