<svg width="19" height="19" viewBox="0 0 19 19" fill="none" xmlns="http://www.w3.org/2000/svg">
<path d="M16.8966 1.60161C16.0149 0.719932 14.8636 0.275408 13.7038 0.251141C12.4832 0.224433 11.2554 0.666466 10.3324 1.59067L2.11056 9.81255C0.910682 11.0173 0.25 12.6155 0.25 14.3133L0.25 17.0337C0.25 17.7052 0.792862 18.2481 1.46443 18.2481L4.1848 18.2481C5.88262 18.2481 7.48084 17.5874 8.68677 16.3863L16.8977 8.17537C18.7073 6.36471 18.7073 3.41359 16.8966 1.60161ZM6.97084 14.668C6.22637 15.41 5.23537 15.8193 4.1849 15.8193L2.67891 15.8193L2.67891 14.3133C2.67891 13.2628 3.08819 12.2718 3.82899 11.5286L9.24912 6.10846L12.3897 9.24903L6.97084 14.668ZM15.1793 6.45943L14.1069 7.53182L10.9664 4.39125L12.0387 3.31891C12.9058 2.45179 14.3146 2.45423 15.1793 3.31891C16.044 4.18476 16.044 5.59353 15.1793 6.45943Z" fill="white" stroke="#EC1630" stroke-width="0.5"/>
</svg>
