<svg width="31" height="13" viewBox="0 0 31 13" fill="none" xmlns="http://www.w3.org/2000/svg">
<path d="M18.3182 0H12.6818C11.9036 0 11.2727 0.571293 11.2727 1.2761V11.4849C11.2727 12.1897 11.9036 12.761 12.6818 12.761H18.3182C19.8746 12.761 21.1364 11.6183 21.1364 10.2088V2.5522C21.1364 1.14267 19.8746 0 18.3182 0ZM18.3182 10.2088H14.0909V2.5522H18.3182V10.2088Z" fill="#EC1630"/>
<path d="M31 2.5522V0H23.9545C23.1763 0 22.5454 0.571293 22.5454 1.2761V12.761H25.3636V7.65659H31V5.10439H25.3636V2.5522H31Z" fill="#EC1630"/>
<path d="M7.04545 0H1.40909C0.630832 0 0 0.571293 0 1.2761V12.761H2.81818V8.93269H7.04545C8.60188 8.93269 9.86364 7.79002 9.86364 6.38049V2.5522C9.86364 1.14267 8.60188 0 7.04545 0ZM7.04545 6.38049H2.81818V2.5522H7.04545V6.38049Z" fill="#EC1630"/>
</svg>
